# xmcd CD database file
#
# Track frame offsets:
#	150
#	31100
#	59902
#	84592
#	110292
#	138852
#	170212
#	201852
#	221537
#	260417
#	296437
#
# Disc length: 4533 seconds
#
# Revision: 3
# Processed by: cddbd v1.5.2PL0 Copyright (c) Steve Scherf et al.
# Submitted via: CDex 1.51
#
DISCID=a411b30b
DTITLE=Paul Van Dyk - Seven Ways
DYEAR=1997
DGENRE=Trance
TTITLE0=Home
TTITLE1=Seven Ways
TTITLE2=Heaven
TTITLE3=I Like It
TTITLE4=Come (And Get It)
TTITLE5=Forbidden Fruit
TTITLE6=Beautiful Place
TTITLE7=People
TTITLE8=The Greatness Of Britain
TTITLE9=I Can't Feel It
TTITLE10=Words
EXTD=YEAR: 1997
EXTT0=
EXTT1=
EXTT2=
EXTT3=
EXTT4=
EXTT5=
EXTT6=
EXTT7=
EXTT8=
EXTT9=
EXTT10=
PLAYORDER=
